<svg width="330" height="80" viewBox="0 0 330 80" fill="none" xmlns="http://www.w3.org/2000/svg">
  <style>
    .bar-dark { fill: #2A2A2E; }
    .bar-accent { fill: #2563EB; }
    .text-accent { fill: #2563EB; }
    
    @media (prefers-color-scheme: light) {
      .bar-dark { fill: #2A2A2E; }
      .text-accent { fill: #2563EB; }
    }
    
    @media (prefers-color-scheme: dark) {
      .bar-dark { fill: #E5E7EB; }
      .text-accent { fill: #60A5FA; }
    }
  </style>
  <path d="M10 0H4C1.79086 0 0 1.79086 0 4V76C0 78.2091 1.79086 80 4 80H10C12.2091 80 14 78.2091 14 76V4C14 1.79086 12.2091 0 10 0Z" class="bar-dark"/>
  <path d="M30 0H24C21.7909 0 20 1.79086 20 4V76C20 78.2091 21.7909 80 24 80H30C32.2091 80 34 78.2091 34 76V4C34 1.79086 32.2091 0 30 0Z" class="bar-accent"/>
  <path d="M50 0H44C41.7909 0 40 1.79086 40 4V52C40 54.2091 41.7909 56 44 56H50C52.2091 56 54 54.2091 54 52V4C54 1.79086 52.2091 0 50 0Z" class="bar-dark"/>
  <path d="M70 0H64C61.7909 0 60 1.4071 60 3.14286V40.8571C60 42.5929 61.7909 44 64 44H70C72.2091 44 74 42.5929 74 40.8571V3.14286C74 1.4071 72.2091 0 70 0Z" class="bar-dark"/>
  <path d="M119.276 53V26.8182H129.605C131.591 26.8182 133.283 27.1974 134.68 27.956C136.078 28.706 137.143 29.75 137.876 31.0881C138.618 32.4176 138.989 33.9517 138.989 35.6903C138.989 37.429 138.614 38.9631 137.864 40.2926C137.114 41.6222 136.027 42.6577 134.604 43.3991C133.189 44.1406 131.476 44.5114 129.464 44.5114H122.881V40.0753H128.57C129.635 40.0753 130.513 39.892 131.203 39.5256C131.902 39.1506 132.422 38.6349 132.763 37.9787C133.112 37.3139 133.287 36.5511 133.287 35.6903C133.287 34.821 133.112 34.0625 132.763 33.4148C132.422 32.7585 131.902 32.2514 131.203 31.8935C130.504 31.527 129.618 31.3438 128.544 31.3438H124.811V53H119.276ZM142.482 53V33.3636H147.762V36.7898H147.966C148.324 35.571 148.925 34.6506 149.769 34.0284C150.613 33.3977 151.584 33.0824 152.684 33.0824C152.956 33.0824 153.25 33.0994 153.566 33.1335C153.881 33.1676 154.158 33.2145 154.397 33.2741V38.1065C154.141 38.0298 153.787 37.9616 153.336 37.902C152.884 37.8423 152.471 37.8125 152.096 37.8125C151.294 37.8125 150.578 37.9872 149.948 38.3366C149.326 38.6776 148.831 39.1548 148.465 39.7685C148.107 40.3821 147.928 41.0895 147.928 41.8906V53H142.482ZM165.17 53.3835C163.185 53.3835 161.467 52.9616 160.018 52.1179C158.578 51.2656 157.466 50.081 156.682 48.5639C155.898 47.0384 155.506 45.2699 155.506 43.2585C155.506 41.2301 155.898 39.4574 156.682 37.9403C157.466 36.4148 158.578 35.2301 160.018 34.3864C161.467 33.5341 163.185 33.108 165.17 33.108C167.156 33.108 168.869 33.5341 170.31 34.3864C171.759 35.2301 172.875 36.4148 173.659 37.9403C174.443 39.4574 174.835 41.2301 174.835 43.2585C174.835 45.2699 174.443 47.0384 173.659 48.5639C172.875 50.081 171.759 51.2656 170.31 52.1179C168.869 52.9616 167.156 53.3835 165.17 53.3835ZM165.196 49.1648C166.099 49.1648 166.854 48.9091 167.459 48.3977C168.064 47.8778 168.52 47.1705 168.827 46.2756C169.142 45.3807 169.3 44.3622 169.3 43.2202C169.3 42.0781 169.142 41.0597 168.827 40.1648C168.52 39.2699 168.064 38.5625 167.459 38.0426C166.854 37.5227 166.099 37.2628 165.196 37.2628C164.284 37.2628 163.517 37.5227 162.895 38.0426C162.281 38.5625 161.817 39.2699 161.501 40.1648C161.195 41.0597 161.041 42.0781 161.041 43.2202C161.041 44.3622 161.195 45.3807 161.501 46.2756C161.817 47.1705 162.281 47.8778 162.895 48.3977C163.517 48.9091 164.284 49.1648 165.196 49.1648ZM178.376 33.3636H183.822V53.9716C183.822 55.4886 183.524 56.7159 182.928 57.6534C182.331 58.5909 181.474 59.277 180.358 59.7116C179.25 60.1463 177.925 60.3636 176.382 60.3636C176.195 60.3636 176.016 60.3594 175.845 60.3509C175.666 60.3509 175.479 60.3466 175.283 60.3381V56.081C175.428 56.0895 175.555 56.0938 175.666 56.0938C175.768 56.1023 175.879 56.1065 175.999 56.1065C176.876 56.1065 177.49 55.919 177.839 55.544C178.197 55.1776 178.376 54.6236 178.376 53.8821V33.3636ZM181.087 30.8324C180.286 30.8324 179.595 30.5639 179.016 30.027C178.436 29.4815 178.146 28.8295 178.146 28.071C178.146 27.321 178.436 26.6776 179.016 26.1406C179.595 25.5952 180.286 25.3224 181.087 25.3224C181.905 25.3224 182.599 25.5952 183.17 26.1406C183.75 26.6776 184.04 27.321 184.04 28.071C184.04 28.8295 183.75 29.4815 183.17 30.027C182.599 30.5639 181.905 30.8324 181.087 30.8324ZM197.134 53.3835C195.114 53.3835 193.375 52.9744 191.918 52.1562C190.469 51.3295 189.353 50.1619 188.569 48.6534C187.784 47.1364 187.392 45.3423 187.392 43.2713C187.392 41.2514 187.784 39.4787 188.569 37.9531C189.353 36.4276 190.456 35.2386 191.88 34.3864C193.311 33.5341 194.99 33.108 196.917 33.108C198.212 33.108 199.418 33.3168 200.534 33.7344C201.659 34.1435 202.64 34.7614 203.475 35.5881C204.319 36.4148 204.975 37.4545 205.444 38.7074C205.912 39.9517 206.147 41.4091 206.147 43.0795V44.5753H189.566V41.2003H201.02C201.02 40.4162 200.85 39.7216 200.509 39.1165C200.168 38.5114 199.695 38.0384 199.09 37.6974C198.493 37.348 197.799 37.1733 197.006 37.1733C196.179 37.1733 195.446 37.3651 194.807 37.7486C194.176 38.1236 193.682 38.6307 193.324 39.2699C192.966 39.9006 192.783 40.6037 192.775 41.3793V44.5881C192.775 45.5597 192.953 46.3991 193.311 47.1065C193.678 47.8139 194.194 48.3594 194.858 48.7429C195.523 49.1264 196.311 49.3182 197.223 49.3182C197.828 49.3182 198.382 49.233 198.885 49.0625C199.388 48.892 199.819 48.6364 200.176 48.2955C200.534 47.9545 200.807 47.5369 200.995 47.0426L206.032 47.375C205.776 48.5852 205.252 49.642 204.459 50.5455C203.675 51.4403 202.661 52.1392 201.417 52.642C200.181 53.1364 198.753 53.3835 197.134 53.3835ZM214.635 47.3494L214.648 40.8168H215.441L221.73 33.3636H227.982L219.532 43.233H218.24L214.635 47.3494ZM209.701 53V26.8182H215.147V53H209.701ZM221.973 53L216.195 44.4474L219.826 40.5994L228.353 53H221.973ZM241.098 33.3636V37.4545H229.273V33.3636H241.098ZM231.958 28.6591H237.404V46.9659C237.404 47.4687 237.48 47.8608 237.634 48.142C237.787 48.4148 238 48.6065 238.273 48.7173C238.554 48.8281 238.878 48.8835 239.245 48.8835C239.5 48.8835 239.756 48.8622 240.012 48.8196C240.267 48.7685 240.463 48.7301 240.6 48.7045L241.456 52.7571C241.184 52.8423 240.8 52.9403 240.306 53.0511C239.811 53.1705 239.211 53.2429 238.503 53.2685C237.191 53.3196 236.04 53.1449 235.051 52.7443C234.071 52.3437 233.309 51.7216 232.763 50.8778C232.218 50.0341 231.949 48.9687 231.958 47.6818V28.6591ZM244.646 53V33.3636H250.092V53H244.646ZM247.382 30.8324C246.572 30.8324 245.877 30.5639 245.298 30.027C244.727 29.4815 244.441 28.8295 244.441 28.071C244.441 27.321 244.727 26.6776 245.298 26.1406C245.877 25.5952 246.572 25.3224 247.382 25.3224C248.191 25.3224 248.882 25.5952 249.453 26.1406C250.032 26.6776 250.322 27.321 250.322 28.071C250.322 28.8295 250.032 29.4815 249.453 30.027C248.882 30.5639 248.191 30.8324 247.382 30.8324ZM263.403 53.3835C261.384 53.3835 259.645 52.9744 258.188 52.1562C256.739 51.3295 255.622 50.1619 254.838 48.6534C254.054 47.1364 253.662 45.3423 253.662 43.2713C253.662 41.2514 254.054 39.4787 254.838 37.9531C255.622 36.4276 256.726 35.2386 258.149 34.3864C259.581 33.5341 261.26 33.108 263.186 33.108C264.482 33.108 265.688 33.3168 266.804 33.7344C267.929 34.1435 268.909 34.7614 269.744 35.5881C270.588 36.4148 271.244 37.4545 271.713 38.7074C272.182 39.9517 272.416 41.4091 272.416 43.0795V44.5753H255.835V41.2003H267.29C267.29 40.4162 267.119 39.7216 266.778 39.1165C266.438 38.5114 265.964 38.0384 265.359 37.6974C264.763 37.348 264.068 37.1733 263.276 37.1733C262.449 37.1733 261.716 37.3651 261.077 37.7486C260.446 38.1236 259.952 38.6307 259.594 39.2699C259.236 39.9006 259.053 40.6037 259.044 41.3793V44.5881C259.044 45.5597 259.223 46.3991 259.581 47.1065C259.947 47.8139 260.463 48.3594 261.128 48.7429C261.793 49.1264 262.581 49.3182 263.493 49.3182C264.098 49.3182 264.652 49.233 265.155 49.0625C265.658 48.892 266.088 48.6364 266.446 48.2955C266.804 47.9545 267.077 47.5369 267.264 47.0426L272.301 47.375C272.045 48.5852 271.521 49.642 270.729 50.5455C269.945 51.4403 268.93 52.1392 267.686 52.642C266.45 53.1364 265.023 53.3835 263.403 53.3835ZM275.97 53V33.3636H281.25V36.7898H281.455C281.813 35.571 282.413 34.6506 283.257 34.0284C284.101 33.3977 285.072 33.0824 286.172 33.0824C286.445 33.0824 286.739 33.0994 287.054 33.1335C287.369 33.1676 287.646 33.2145 287.885 33.2741V38.1065C287.629 38.0298 287.276 37.9616 286.824 37.902C286.372 37.8423 285.959 37.8125 285.584 37.8125C284.783 37.8125 284.067 37.9872 283.436 38.3366C282.814 38.6776 282.32 39.1548 281.953 39.7685C281.595 40.3821 281.416 41.0895 281.416 41.8906V53H275.97ZM298.735 53.3835C296.716 53.3835 294.977 52.9744 293.52 52.1562C292.071 51.3295 290.954 50.1619 290.17 48.6534C289.386 47.1364 288.994 45.3423 288.994 43.2713C288.994 41.2514 289.386 39.4787 290.17 37.9531C290.954 36.4276 292.058 35.2386 293.481 34.3864C294.913 33.5341 296.592 33.108 298.518 33.108C299.814 33.108 301.02 33.3168 302.136 33.7344C303.261 34.1435 304.241 34.7614 305.076 35.5881C305.92 36.4148 306.576 37.4545 307.045 38.7074C307.514 39.9517 307.748 41.4091 307.748 43.0795V44.5753H291.167V41.2003H302.622C302.622 40.4162 302.451 39.7216 302.11 39.1165C301.77 38.5114 301.297 38.0384 300.691 37.6974C300.095 37.348 299.4 37.1733 298.608 37.1733C297.781 37.1733 297.048 37.3651 296.409 37.7486C295.778 38.1236 295.284 38.6307 294.926 39.2699C294.568 39.9006 294.385 40.6037 294.376 41.3793V44.5881C294.376 45.5597 294.555 46.3991 294.913 47.1065C295.279 47.8139 295.795 48.3594 296.46 48.7429C297.125 49.1264 297.913 49.3182 298.825 49.3182C299.43 49.3182 299.984 49.233 300.487 49.0625C300.99 48.892 301.42 48.6364 301.778 48.2955C302.136 47.9545 302.409 47.5369 302.596 47.0426L307.633 47.375C307.377 48.5852 306.853 49.642 306.061 50.5455C305.277 51.4403 304.262 52.1392 303.018 52.642C301.782 53.1364 300.355 53.3835 298.735 53.3835ZM316.748 41.6477V53H311.302V33.3636H316.493V36.8281H316.723C317.157 35.6861 317.886 34.7827 318.909 34.1179C319.931 33.4446 321.172 33.108 322.629 33.108C323.993 33.108 325.181 33.4062 326.196 34.0028C327.21 34.5994 327.998 35.4517 328.561 36.5597C329.123 37.6591 329.404 38.9716 329.404 40.4972V53H323.958V41.4688C323.967 40.267 323.66 39.3295 323.038 38.6562C322.416 37.9744 321.559 37.6335 320.468 37.6335C319.735 37.6335 319.088 37.7912 318.525 38.1065C317.971 38.4219 317.537 38.8821 317.221 39.4872C316.914 40.0838 316.757 40.804 316.748 41.6477Z" class="text-accent"/>
</svg>
